simulation
nRows=50
nColumns=15
endheader
time  TH_x TH_y TH_z SC_y  SC_z  SC_x  AC_y  AC_z  AC_x  GH_y  GH_z  GH_yy  EL_x  PS_y
0.000000  0.000000  0.000000  0.000000  -28.774430  0.582046  8.194939  62.168397  20.674938  3.147984  44.457780  51.370664  -55.011230  24.456579  0.000000
0.010000  0.000000  0.000000  0.000000  -29.032246  0.344634  8.177273  62.516732  20.899306  3.123773  44.494073  51.458368  -54.843775  24.656122  0.000000
0.020000  0.000000  0.000000  0.000000  -29.271809  0.127646  8.152079  62.827106  21.106689  3.100463  44.536708  51.538345  -54.723237  24.836597  0.000000
0.030000  0.000000  0.000000  0.000000  -29.493917  -0.070016  8.119790  63.101848  21.297763  3.078082  44.585582  51.610730  -54.646864  24.999065  0.000000
0.040000  0.000000  0.000000  0.000000  -29.699342  -0.249415  8.080826  63.343206  21.473188  3.056660  44.640590  51.675658  -54.611999  25.144551  0.000000
0.050000  0.000000  0.000000  0.000000  -29.888835  -0.411577  8.035594  63.553350  21.633605  3.036223  44.701631  51.733266  -54.616077  25.274048  0.000000
0.060000  0.000000  0.000000  0.000000  -30.063125  -0.557494  7.984488  63.734368  21.779638  3.016792  44.768600  51.783688  -54.656628  25.388519  0.000000
0.070000  0.000000  0.000000  0.000000  -30.222917  -0.688124  7.927887  63.888275  21.911892  2.998390  44.841393  51.827063  -54.731267  25.488892  0.000000
0.080000  0.000000  0.000000  0.000000  -30.368895  -0.804391  7.866161  64.017009  22.030953  2.981035  44.919908  51.863526  -54.837701  25.576065  0.000000
0.090000  0.000000  0.000000  0.000000  -30.501723  -0.907187  7.799665  64.122434  22.137395  2.964743  45.004040  51.893215  -54.973719  25.650906  0.000000
0.100000  0.000000  0.000000  0.000000  -30.622044  -0.997370  7.728743  64.206342  22.231770  2.949530  45.093686  51.916266  -55.137197  25.714253  0.000000
0.110000  0.000000  0.000000  0.000000  -30.730479  -1.075768  7.653728  64.270455  22.314618  2.935406  45.188739  51.932818  -55.326091  25.766913  0.000000
0.120000  0.000000  0.000000  0.000000  -30.827630  -1.143179  7.574938  64.316425  22.386458  2.922383  45.289097  51.943007  -55.538437  25.809665  0.000000
0.130000  0.000000  0.000000  0.000000  -30.914079  -1.200369  7.492684  64.345838  22.447798  2.910468  45.394654  51.946972  -55.772351  25.843260  0.000000
0.140000  0.000000  0.000000  0.000000  -30.990390  -1.248075  7.407263  64.360212  22.499129  2.899669  45.505305  51.944850  -56.026024  25.868421  0.000000
0.150000  0.000000  0.000000  0.000000  -31.057108  -1.287005  7.318962  64.361000  22.540925  2.889989  45.620945  51.936779  -56.297722  25.885843  0.000000
0.160000  0.000000  0.000000  0.000000  -31.114757  -1.317838  7.228058  64.349593  22.573647  2.881432  45.741467  51.922897  -56.585784  25.896194  0.000000
0.170000  0.000000  0.000000  0.000000  -31.163845  -1.341228  7.134816  64.327321  22.597741  2.873999  45.866767  51.903341  -56.888622  25.900116  0.000000
0.180000  0.000000  0.000000  0.000000  -31.204863  -1.357798  7.039491  64.295450  22.613638  2.867688  45.996737  51.878248  -57.204716  25.898226  0.000000
0.190000  0.000000  0.000000  0.000000  -31.238284  -1.368147  6.942329  64.255191  22.621758  2.862498  46.131270  51.847757  -57.532613  25.891116  0.000000
0.200000  0.000000  0.000000  0.000000  -31.264562  -1.372847  6.843567  64.207695  22.622503  2.858424  46.270261  51.812005  -57.870927  25.879351  0.000000
0.210000  0.000000  0.000000  0.000000  -31.284137  -1.372447  6.743430  64.154057  22.616265  2.855462  46.413600  51.771129  -58.218337  25.863473  0.000000
0.220000  0.000000  0.000000  0.000000  -31.297433  -1.367467  6.642134  64.095318  22.603420  2.853604  46.561182  51.725266  -58.573584  25.844001  0.000000
0.230000  0.000000  0.000000  0.000000  -31.304855  -1.358408  6.539889  64.032464  22.584335  2.852843  46.712896  51.674552  -58.935471  25.821431  0.000000
0.240000  0.000000  0.000000  0.000000  -31.306796  -1.345742  6.436892  63.966430  22.559360  2.853168  46.868636  51.619124  -59.302860  25.796234  0.000000
0.250000  0.000000  0.000000  0.000000  -31.303631  -1.329922  6.333333  63.898100  22.528837  2.854568  47.028291  51.559119  -59.674671  25.768861  0.000000
0.260000  0.000000  0.000000  0.000000  -31.295723  -1.311378  6.229394  63.828307  22.493092  2.857032  47.191753  51.494671  -60.049881  25.739740  0.000000
0.270000  0.000000  0.000000  0.000000  -31.283418  -1.290516  6.125249  63.757837  22.452443  2.860546  47.358912  51.425917  -60.427521  25.709278  0.000000
0.280000  0.000000  0.000000  0.000000  -31.267048  -1.267723  6.021063  63.687429  22.407194  2.865096  47.529658  51.352992  -60.806676  25.677862  0.000000
0.290000  0.000000  0.000000  0.000000  -31.246933  -1.243365  5.916991  63.617776  22.357639  2.870665  47.703879  51.276029  -61.186482  25.645857  0.000000
0.300000  0.000000  0.000000  0.000000  -31.223379  -1.217785  5.813185  63.549526  22.304060  2.877236  47.881467  51.195164  -61.566126  25.613610  0.000000
0.310000  0.000000  0.000000  0.000000  -31.196676  -1.191311  5.709786  63.483284  22.246730  2.884793  48.062308  51.110529  -61.944844  25.581448  0.000000
0.320000  0.000000  0.000000  0.000000  -31.167106  -1.164247  5.606929  63.419612  22.185910  2.893315  48.246291  51.022258  -62.321918  25.549677  0.000000
0.330000  0.000000  0.000000  0.000000  -31.134935  -1.136882  5.504742  63.359034  22.121852  2.902784  48.433304  50.930483  -62.696678  25.518589  0.000000
0.340000  0.000000  0.000000  0.000000  -31.100418  -1.109485  5.403344  63.302032  22.054797  2.913179  48.623235  50.835336  -63.068496  25.488453  0.000000
0.350000  0.000000  0.000000  0.000000  -31.063797  -1.082308  5.302849  63.249049  21.984977  2.924478  48.815970  50.736949  -63.436790  25.459524  0.000000
0.360000  0.000000  0.000000  0.000000  -31.025303  -1.055585  5.203366  63.200492  21.912614  2.936658  49.011396  50.635452  -63.801016  25.432038  0.000000
0.370000  0.000000  0.000000  0.000000  -30.985158  -1.029535  5.104995  63.156731  21.837922  2.949698  49.209400  50.530975  -64.160674  25.406216  0.000000
0.380000  0.000000  0.000000  0.000000  -30.943570  -1.004360  5.007830  63.118102  21.761106  2.963572  49.409867  50.423647  -64.515301  25.382260  0.000000
0.390000  0.000000  0.000000  0.000000  -30.900737  -0.980246  4.911961  63.084907  21.682361  2.978257  49.612682  50.313598  -64.864472  25.360359  0.000000
0.400000  0.000000  0.000000  0.000000  -30.856847  -0.957364  4.817469  63.057413  21.601874  2.993727  49.817732  50.200953  -65.207798  25.340685  0.000000
0.410000  0.000000  0.000000  0.000000  -30.812079  -0.935871  4.724433  63.035858  21.519823  3.009956  50.024899  50.085842  -65.544924  25.323395  0.000000
0.420000  0.000000  0.000000  0.000000  -30.766600  -0.915909  4.632923  63.020448  21.436382  3.026919  50.234069  49.968389  -65.875532  25.308633  0.000000
0.430000  0.000000  0.000000  0.000000  -30.720569  -0.897608  4.543007  63.011361  21.351711  3.044588  50.445126  49.848720  -66.199333  25.296528  0.000000
0.440000  0.000000  0.000000  0.000000  -30.674136  -0.881081  4.454744  63.008743  21.265967  3.062937  50.657953  49.726960  -66.516072  25.287193  0.000000
0.450000  0.000000  0.000000  0.000000  -30.627441  -0.866432  4.368192  63.012717  21.179299  3.081937  50.872434  49.603232  -66.825521  25.280731  0.000000
0.460000  0.000000  0.000000  0.000000  -30.580616  -0.853751  4.283401  63.023376  21.091847  3.101561  51.088451  49.477659  -67.127483  25.277232  0.000000
0.470000  0.000000  0.000000  0.000000  -30.533784  -0.843116  4.200417  63.040789  21.003745  3.121779  51.305888  49.350362  -67.421788  25.276770  0.000000
0.480000  0.000000  0.000000  0.000000  -30.487061  -0.834593  4.119284  63.065001  20.915122  3.142564  51.524626  49.221462  -67.708292  25.279410  0.000000
0.490000  0.000000  0.000000  0.000000  -30.440554  -0.828239  4.040039  63.096033  20.826098  3.163885  51.744548  49.091078  -67.986878  25.285205  0.000000
